<svg xmlns="http://www.w3.org/2000/svg" version="1.1" xmlns:xlink="http://www.w3.org/1999/xlink" xmlns:svgjs="http://svgjs.dev/svgjs" width="2000" height="1500" viewBox="0 0 2000 1500"><rect width="2000" height="1500" fill="#fce44d"></rect><g transform="matrix(0.75,0,0,0.75,250.44342683711488,18.592712550607246)"><svg viewBox="0 0 253 247" data-background-color="#fce44d" preserveAspectRatio="xMidYMid meet" height="1952" width="2000" xmlns="http://www.w3.org/2000/svg" xmlns:xlink="http://www.w3.org/1999/xlink"><g id="tight-bounds" transform="matrix(1,0,0,1,-0.07479132652670728,-0.09999999999999432)"><svg viewBox="0 0 253.14958265305341 247.2" height="247.2" width="253.14958265305341"><g><svg viewBox="0 0 395.52 386.2243934014271" height="247.2" width="253.14958265305341"><g transform="matrix(1,0,0,1,0,265.68504557865907)"><svg viewBox="0 0 395.52 120.53934782276804" height="120.53934782276804" width="395.52"><g><svg viewBox="0 0 395.52 120.53934782276804" height="120.53934782276804" width="395.52"><g><svg viewBox="0 0 395.52 78.9504851677294" height="78.9504851677294" width="395.52"><g transform="matrix(1,0,0,1,0,0)"><svg width="395.52" viewBox="4.8 -35.75 180.33999999999997 36" height="78.9504851677294" data-palette-color="#374151"><path d="M6.55-1.6L28.25-1.6 28.25 0 4.8 0 4.8-35.5 27.8-35.5 27.8-33.9 6.55-33.9 6.55-18.95 25.15-18.95 25.15-17.35 6.55-17.35 6.55-1.6ZM47.7-12.75L33.45-12.75 33.45-14.4 47.7-14.4 47.7-12.75ZM77.44-31.55L76.5-30.25Q75.5-31.3 74.44-32.05 73.39-32.8 72.19-33.25 71-33.7 69.64-33.93 68.3-34.15 66.69-34.15L66.69-34.15Q61.05-34.15 58.49-32 55.95-29.85 55.95-26.25L55.95-26.25Q55.95-23.8 57.05-22.4 58.14-21 60.55-20.18 62.95-19.35 66.75-18.55L66.75-18.55Q70.64-17.75 73.5-16.7 76.34-15.65 77.89-13.85 79.44-12.05 79.44-8.9L79.44-8.9Q79.44-6.65 78.57-4.93 77.69-3.2 76.05-2.05 74.39-0.9 72.07-0.33 69.75 0.25 66.89 0.25L66.89 0.25Q64.05 0.25 61.59-0.33 59.14-0.9 56.99-2.1 54.84-3.3 52.95-5.15L52.95-5.15 53.99-6.45Q55.2-5.15 56.62-4.17 58.05-3.2 59.67-2.55 61.3-1.9 63.12-1.58 64.94-1.25 66.94-1.25L66.94-1.25Q71.94-1.25 74.82-3.13 77.69-5 77.69-8.65L77.69-8.65Q77.69-11.2 76.44-12.73 75.19-14.25 72.64-15.23 70.09-16.2 66.14-17L66.14-17Q62.3-17.8 59.62-18.75 56.95-19.7 55.57-21.4 54.2-23.1 54.2-26L54.2-26Q54.2-29.15 55.74-31.33 57.3-33.5 60.09-34.63 62.89-35.75 66.64-35.75L66.64-35.75Q68.94-35.75 70.84-35.3 72.75-34.85 74.37-33.95 76-33.05 77.44-31.55L77.44-31.55ZM111.39-35.5L113.09-35.5 113.09 0 111.39 0 111.39-17.35 87.79-17.35 87.79 0 86.04 0 86.04-35.5 87.79-35.5 87.79-18.95 111.39-18.95 111.39-35.5ZM136.79 0.25L136.79 0.25Q133.09 0.25 130.04-1.28 126.99-2.8 124.79-5.35 122.59-7.9 121.39-11.13 120.19-14.35 120.19-17.75L120.19-17.75Q120.19-21.3 121.44-24.53 122.69-27.75 124.97-30.28 127.24-32.8 130.27-34.27 133.29-35.75 136.79-35.75L136.79-35.75Q140.49-35.75 143.54-34.2 146.59-32.65 148.77-30.05 150.94-27.45 152.14-24.25 153.34-21.05 153.34-17.75L153.34-17.75Q153.34-14.15 152.09-10.93 150.84-7.7 148.59-5.18 146.34-2.65 143.32-1.2 140.29 0.25 136.79 0.25ZM121.94-17.75L121.94-17.75Q121.94-14.55 123.04-11.63 124.14-8.7 126.12-6.4 128.09-4.1 130.82-2.75 133.54-1.4 136.79-1.4L136.79-1.4Q140.09-1.4 142.84-2.8 145.59-4.2 147.54-6.55 149.49-8.9 150.54-11.8 151.59-14.7 151.59-17.75L151.59-17.75Q151.59-20.95 150.49-23.88 149.39-26.8 147.39-29.1 145.39-31.4 142.67-32.75 139.94-34.1 136.79-34.1L136.79-34.1Q133.44-34.1 130.72-32.7 127.99-31.3 126.04-28.95 124.09-26.6 123.02-23.7 121.94-20.8 121.94-17.75ZM162.19 0L160.44 0 160.44-35.5 174.99-35.5Q177.19-35.5 179.04-34.58 180.89-33.65 182.24-32.08 183.59-30.5 184.36-28.58 185.14-26.65 185.14-24.65L185.14-24.65Q185.14-21.85 183.89-19.35 182.64-16.85 180.44-15.28 178.24-13.7 175.29-13.7L175.29-13.7 162.19-13.7 162.19 0ZM162.19-33.9L162.19-15.3 175.24-15.3Q177.79-15.3 179.61-16.68 181.44-18.05 182.41-20.18 183.39-22.3 183.39-24.65L183.39-24.65Q183.39-27.1 182.24-29.2 181.09-31.3 179.16-32.6 177.24-33.9 174.94-33.9L174.94-33.9 162.19-33.9Z" opacity="1" transform="matrix(1,0,0,1,0,0)" fill="#374151" class="undefined-text-0" data-fill-palette-color="primary" id="text-0"></path></svg></g></svg></g><g transform="matrix(1,0,0,1,75.54432,97.58879990418629)"><svg viewBox="0 0 244.43135999999998 22.950547918581748" height="22.950547918581748" width="244.43135999999998"><g transform="matrix(1,0,0,1,0,0)"><svg width="244.43135999999998" viewBox="4 -38.3 532.98 50.05" height="22.950547918581748" data-palette-color="#374151"><path d="M14.3 0L5.15 0Q4.65 0 4.33-0.3 4-0.6 4-1L4-1 4-35.5Q4-36 4.35-36.27 4.7-36.55 5.15-36.55L5.15-36.55 13-36.55Q15.85-36.55 18.18-35.9 20.5-35.25 21.85-33.45 23.2-31.65 23.2-28.15L23.2-28.15Q23.2-24.95 22.05-22.8 20.9-20.65 18.95-19.8L18.95-19.8Q20.5-19.15 21.65-18.1 22.8-17.05 23.45-15.38 24.1-13.7 24.1-11.1L24.1-11.1 24.1-10.2Q24.1-6.45 22.8-4.2 21.5-1.95 19.28-0.98 17.05 0 14.3 0L14.3 0ZM6.45-18.65L6.45-2.4 14.1-2.4Q17.6-2.4 19.6-4.28 21.6-6.15 21.6-10.3L21.6-10.3 21.6-11.15Q21.6-15.3 19.6-16.98 17.6-18.65 14.1-18.65L14.1-18.65 6.45-18.65ZM6.45-34.15L6.45-20.95 13.25-20.95Q17.05-20.95 18.88-22.48 20.7-24 20.7-27.95L20.7-27.95Q20.7-30.55 19.73-31.88 18.75-33.2 17.03-33.68 15.3-34.15 13-34.15L13-34.15 6.45-34.15ZM38.85 0.3L38.85 0.3Q36.35 0.3 34.25-0.98 32.15-2.25 30.9-4.35 29.65-6.45 29.65-8.85L29.65-8.85 29.65-22.55Q29.65-22.95 30.02-23.28 30.4-23.6 30.9-23.6L30.9-23.6Q31.4-23.6 31.75-23.28 32.1-22.95 32.1-22.55L32.1-22.55 32.1-8.85Q32.1-7.1 33-5.55 33.9-4 35.42-3 36.95-2 38.85-2L38.85-2Q40.75-2 42.25-2.98 43.75-3.95 44.65-5.53 45.55-7.1 45.55-8.85L45.55-8.85 45.55-22.6Q45.55-23 45.92-23.3 46.3-23.6 46.8-23.6L46.8-23.6Q47.35-23.6 47.67-23.3 48-23 48-22.6L48-22.6 48-8.85Q48-6.4 46.75-4.3 45.5-2.2 43.42-0.95 41.35 0.3 38.85 0.3ZM53.05 11.75L53.05 11.75Q52.59 11.75 52.25 11.45 51.9 11.15 51.9 10.6L51.9 10.6Q51.9 10.15 52.09 9.8 52.3 9.45 52.8 9.45L52.8 9.45Q54.05 9.45 55.12 8.58 56.2 7.7 57.12 6.18 58.05 4.65 58.77 2.85 59.5 1.05 60.05-0.8L60.05-0.8 51.95-22.35Q51.84-22.6 51.84-22.75L51.84-22.75Q51.84-23.1 52.07-23.35 52.3-23.6 52.62-23.78 52.95-23.95 53.3-23.95L53.3-23.95Q53.59-23.95 53.9-23.78 54.2-23.6 54.25-23.3L54.25-23.3 61.3-4.05 68.15-23.3Q68.3-23.6 68.55-23.78 68.8-23.95 69.09-23.95L69.09-23.95Q69.45-23.95 69.77-23.8 70.09-23.65 70.32-23.38 70.55-23.1 70.55-22.75L70.55-22.75Q70.55-22.5 70.45-22.35L70.45-22.35 62.55-0.8Q61.9 1.15 61.05 3.33 60.2 5.5 59.07 7.4 57.95 9.3 56.47 10.53 55 11.75 53.05 11.75ZM95.04 0.3L95.04 0.3Q92.24 0.3 89.97-0.75 87.69-1.8 86.37-4.08 85.04-6.35 85.04-10.15L85.04-10.15 85.04-26.1Q85.04-29.9 86.37-32.18 87.69-34.45 89.97-35.5 92.24-36.55 95.04-36.55L95.04-36.55Q97.89-36.55 100.19-35.5 102.49-34.45 103.82-32.18 105.14-29.9 105.14-26.1L105.14-26.1 105.14-10.15Q105.14-6.35 103.82-4.08 102.49-1.8 100.19-0.75 97.89 0.3 95.04 0.3ZM95.04-2.1L95.04-2.1Q98.59-2.1 100.62-4.08 102.64-6.05 102.64-10.15L102.64-10.15 102.64-26.1Q102.64-30.2 100.64-32.18 98.64-34.15 95.04-34.15L95.04-34.15Q91.49-34.15 89.49-32.18 87.49-30.2 87.49-26.1L87.49-26.1 87.49-10.15Q87.49-6.05 89.49-4.08 91.49-2.1 95.04-2.1ZM112.94 0L112.94 0Q112.44 0 112.09-0.33 111.74-0.65 111.74-1.05L111.74-1.05 111.74-22.6Q111.74-23.05 112.09-23.33 112.44-23.6 112.94-23.6L112.94-23.6Q113.49-23.6 113.81-23.33 114.14-23.05 114.14-22.6L114.14-22.6 114.14-20.1Q114.99-21.55 116.66-22.73 118.34-23.9 120.84-23.9L120.84-23.9Q123.29-23.9 125.31-22.68 127.34-21.45 128.56-19.38 129.79-17.3 129.79-14.75L129.79-14.75 129.79-1.05Q129.79-0.55 129.41-0.28 129.04 0 128.54 0L128.54 0Q128.14 0 127.74-0.28 127.34-0.55 127.34-1.05L127.34-1.05 127.34-14.75Q127.34-16.5 126.41-18.05 125.49-19.6 123.99-20.6 122.49-21.6 120.64-21.6L120.64-21.6Q119.04-21.6 117.56-20.78 116.09-19.95 115.14-18.43 114.19-16.9 114.19-14.75L114.19-14.75 114.19-1.05Q114.19-0.65 113.84-0.33 113.49 0 112.94 0ZM137.74 0L137.74 0Q137.24 0 136.89-0.33 136.54-0.65 136.54-1.05L136.54-1.05 136.54-37.25Q136.54-37.75 136.89-38.02 137.24-38.3 137.74-38.3L137.74-38.3Q138.29-38.3 138.64-38.02 138.99-37.75 138.99-37.25L138.99-37.25 138.99-1.05Q138.99-0.65 138.64-0.33 138.29 0 137.74 0ZM147.18 0L147.18 0Q146.68 0 146.33-0.33 145.98-0.65 145.98-1.05L145.98-1.05 145.98-22.6Q145.98-23.05 146.33-23.33 146.68-23.6 147.18-23.6L147.18-23.6Q147.73-23.6 148.08-23.33 148.43-23.05 148.43-22.6L148.43-22.6 148.43-1.05Q148.43-0.65 148.08-0.33 147.73 0 147.18 0ZM147.18-31.05L147.18-31.05Q146.43-31.05 145.86-31.6 145.28-32.15 145.28-32.9L145.28-32.9Q145.28-33.65 145.86-34.15 146.43-34.65 147.18-34.65L147.18-34.65Q147.98-34.65 148.51-34.15 149.03-33.65 149.03-32.9L149.03-32.9Q149.03-32.15 148.51-31.6 147.98-31.05 147.18-31.05ZM156.18 0L156.18 0Q155.68 0 155.33-0.33 154.98-0.65 154.98-1.05L154.98-1.05 154.98-22.6Q154.98-23.05 155.33-23.33 155.68-23.6 156.18-23.6L156.18-23.6Q156.73-23.6 157.06-23.33 157.38-23.05 157.38-22.6L157.38-22.6 157.38-20.1Q158.23-21.55 159.91-22.73 161.58-23.9 164.08-23.9L164.08-23.9Q166.53-23.9 168.56-22.68 170.58-21.45 171.81-19.38 173.03-17.3 173.03-14.75L173.03-14.75 173.03-1.05Q173.03-0.55 172.66-0.28 172.28 0 171.78 0L171.78 0Q171.38 0 170.98-0.28 170.58-0.55 170.58-1.05L170.58-1.05 170.58-14.75Q170.58-16.5 169.66-18.05 168.73-19.6 167.23-20.6 165.73-21.6 163.88-21.6L163.88-21.6Q162.28-21.6 160.81-20.78 159.33-19.95 158.38-18.43 157.43-16.9 157.43-14.75L157.43-14.75 157.43-1.05Q157.43-0.65 157.08-0.33 156.73 0 156.18 0ZM188.88 0.3L188.88 0.3Q185.83 0.3 183.5-0.85 181.18-2 179.83-4.08 178.48-6.15 178.48-8.95L178.48-8.95 178.48-14.9Q178.48-17.35 179.75-19.4 181.03-21.45 183.1-22.68 185.18-23.9 187.68-23.9L187.68-23.9Q190.13-23.9 192.18-22.73 194.23-21.55 195.5-19.53 196.78-17.5 196.78-14.85L196.78-14.85Q196.78-13 196.15-12.18 195.53-11.35 194.58-11.18 193.63-11 192.53-11L192.53-11 180.93-11 180.93-8.9Q180.93-5.7 183.23-3.83 185.53-1.95 188.98-1.95L188.98-1.95Q191.03-1.95 192.13-2.45 193.23-2.95 193.83-3.45 194.43-3.95 194.93-3.95L194.93-3.95Q195.28-3.95 195.53-3.75 195.78-3.55 195.93-3.28 196.08-3 196.08-2.75L196.08-2.75Q196.08-2.25 195.2-1.5 194.33-0.75 192.73-0.23 191.13 0.3 188.88 0.3ZM180.93-15.1L180.93-13.05 191.58-13.05Q193.28-13.05 193.83-13.4 194.38-13.75 194.38-14.85L194.38-14.85Q194.38-16.55 193.55-18.13 192.73-19.7 191.2-20.7 189.68-21.7 187.68-21.7L187.68-21.7Q185.78-21.7 184.25-20.8 182.73-19.9 181.83-18.4 180.93-16.9 180.93-15.1L180.93-15.1ZM218.57 0.35L218.57 0.35Q218.12 0.35 217.9 0.15 217.67-0.05 217.47-0.55L217.47-0.55 209.67-21.8Q209.62-21.95 209.55-22.18 209.47-22.4 209.47-22.5L209.47-22.5Q209.47-22.85 209.67-23.1 209.87-23.35 210.2-23.5 210.52-23.65 210.87-23.65L210.87-23.65Q211.17-23.65 211.47-23.5 211.77-23.35 211.87-23.05L211.87-23.05 218.62-4.3 224.07-21.5Q224.17-21.9 224.47-22.08 224.77-22.25 225.17-22.25L225.17-22.25Q225.57-22.25 225.85-22.08 226.12-21.9 226.27-21.5L226.27-21.5 231.52-4.05 238.42-23.05Q238.57-23.65 239.37-23.65L239.37-23.65Q239.67-23.65 240-23.53 240.32-23.4 240.52-23.15 240.72-22.9 240.72-22.55L240.72-22.55Q240.72-22.4 240.67-22.15 240.62-21.9 240.52-21.8L240.52-21.8 232.72-0.35Q232.57 0.05 232.3 0.2 232.02 0.35 231.72 0.35L231.72 0.35Q231.32 0.35 231.1 0.2 230.87 0.05 230.72-0.3L230.72-0.3 225.17-17.9 219.67-0.55Q219.52-0.1 219.25 0.13 218.97 0.35 218.57 0.35ZM246.07 0L246.07 0Q245.57 0 245.22-0.33 244.87-0.65 244.87-1.05L244.87-1.05 244.87-22.6Q244.87-23.05 245.22-23.33 245.57-23.6 246.07-23.6L246.07-23.6Q246.62-23.6 246.97-23.33 247.32-23.05 247.32-22.6L247.32-22.6 247.32-1.05Q247.32-0.65 246.97-0.33 246.62 0 246.07 0ZM246.07-31.05L246.07-31.05Q245.32-31.05 244.75-31.6 244.17-32.15 244.17-32.9L244.17-32.9Q244.17-33.65 244.75-34.15 245.32-34.65 246.07-34.65L246.07-34.65Q246.87-34.65 247.4-34.15 247.92-33.65 247.92-32.9L247.92-32.9Q247.92-32.15 247.4-31.6 246.87-31.05 246.07-31.05ZM262.62 0L261.37 0Q257.67 0 255.72-1.7 253.77-3.4 253.77-7.1L253.77-7.1 253.77-34Q253.77-34.5 254.17-34.77 254.57-35.05 254.97-35.05L254.97-35.05Q255.47-35.05 255.84-34.77 256.22-34.5 256.22-34L256.22-34 256.22-23.6 262.87-23.6Q263.27-23.6 263.54-23.3 263.82-23 263.82-22.5L263.82-22.5Q263.82-22.1 263.54-21.78 263.27-21.45 262.87-21.45L262.87-21.45 256.22-21.45 256.22-7.1Q256.22-4.5 257.39-3.4 258.57-2.3 261.37-2.3L261.37-2.3 262.62-2.3Q263.17-2.3 263.47-1.98 263.77-1.65 263.77-1.15L263.77-1.15Q263.77-0.7 263.47-0.35 263.17 0 262.62 0L262.62 0ZM269.27 0L269.27 0Q268.77 0 268.42-0.33 268.07-0.65 268.07-1.05L268.07-1.05 268.07-37.25Q268.07-37.75 268.42-38.02 268.77-38.3 269.27-38.3L269.27-38.3Q269.82-38.3 270.17-38.02 270.52-37.75 270.52-37.25L270.52-37.25 270.52-20.1Q271.37-21.55 273.04-22.73 274.72-23.9 277.17-23.9L277.17-23.9Q279.62-23.9 281.64-22.68 283.67-21.45 284.89-19.38 286.12-17.3 286.12-14.75L286.12-14.75 286.12-1.05Q286.12-0.55 285.74-0.28 285.37 0 284.87 0L284.87 0Q284.47 0 284.07-0.28 283.67-0.55 283.67-1.05L283.67-1.05 283.67-14.75Q283.67-16.5 282.74-18.05 281.82-19.6 280.32-20.6 278.82-21.6 276.97-21.6L276.97-21.6Q275.37-21.6 273.89-20.78 272.42-19.95 271.47-18.43 270.52-16.9 270.52-14.75L270.52-14.75 270.52-1.05Q270.52-0.65 270.17-0.33 269.82 0 269.27 0ZM298.61 11.75L298.61 11.75Q298.01 11.75 297.69 11.38 297.36 11 297.36 10.55L297.36 10.55Q297.36 10.05 297.69 9.75 298.01 9.45 298.46 9.45L298.46 9.45Q300.26 9.45 301.11 8.53 301.96 7.6 302.21 5.98 302.46 4.35 302.46 2.3L302.46 2.3 302.46-22.6Q302.46-23.05 302.81-23.33 303.16-23.6 303.66-23.6L303.66-23.6Q304.21-23.6 304.56-23.33 304.91-23.05 304.91-22.6L304.91-22.6 304.91 2.3Q304.91 5.05 304.31 7.2 303.71 9.35 302.31 10.55 300.91 11.75 298.61 11.75ZM303.66-31.05L303.66-31.05Q302.91-31.05 302.34-31.6 301.76-32.15 301.76-32.9L301.76-32.9Q301.76-33.65 302.34-34.15 302.91-34.65 303.66-34.65L303.66-34.65Q304.46-34.65 304.99-34.15 305.51-33.65 305.51-32.9L305.51-32.9Q305.51-32.15 304.99-31.6 304.46-31.05 303.66-31.05ZM320.46 0.3L320.46 0.3Q317.96 0.3 315.86-0.98 313.76-2.25 312.51-4.35 311.26-6.45 311.26-8.85L311.26-8.85 311.26-22.55Q311.26-22.95 311.63-23.28 312.01-23.6 312.51-23.6L312.51-23.6Q313.01-23.6 313.36-23.28 313.71-22.95 313.71-22.55L313.71-22.55 313.71-8.85Q313.71-7.1 314.61-5.55 315.51-4 317.03-3 318.56-2 320.46-2L320.46-2Q322.36-2 323.86-2.98 325.36-3.95 326.26-5.53 327.16-7.1 327.16-8.85L327.16-8.85 327.16-22.6Q327.16-23 327.53-23.3 327.91-23.6 328.41-23.6L328.41-23.6Q328.96-23.6 329.28-23.3 329.61-23 329.61-22.6L329.61-22.6 329.61-8.85Q329.61-6.4 328.36-4.3 327.11-2.2 325.03-0.95 322.96 0.3 320.46 0.3ZM342.01 0.3L342.01 0.3Q339.71 0.3 338.03-0.28 336.36-0.85 335.41-1.63 334.46-2.4 334.46-3.1L334.46-3.1Q334.46-3.35 334.58-3.6 334.71-3.85 334.93-4.05 335.16-4.25 335.36-4.25L335.36-4.25Q335.86-4.25 336.51-3.68 337.16-3.1 338.41-2.5 339.66-1.9 341.96-1.9L341.96-1.9Q344.96-1.9 346.21-3.05 347.46-4.2 347.46-5.75L347.46-5.75Q347.46-7.55 346.58-8.58 345.71-9.6 344.26-10.15 342.81-10.7 341.23-11.13 339.66-11.55 338.21-12.2 336.76-12.85 335.86-14.05 334.96-15.25 334.96-17.3L334.96-17.3Q334.96-18.8 335.76-20.35 336.56-21.9 338.23-22.9 339.91-23.9 342.61-23.9L342.61-23.9Q344.21-23.9 345.66-23.58 347.11-23.25 348.06-22.73 349.01-22.2 349.01-21.65L349.01-21.65Q349.01-21.45 348.86-21.13 348.71-20.8 348.48-20.58 348.26-20.35 347.91-20.35L347.91-20.35Q347.56-20.35 346.91-20.7 346.26-21.05 345.21-21.38 344.16-21.7 342.66-21.7L342.66-21.7Q340.71-21.7 339.53-21 338.36-20.3 337.83-19.3 337.31-18.3 337.31-17.35L337.31-17.35Q337.31-15.85 338.21-15 339.11-14.15 340.53-13.68 341.96-13.2 343.56-12.75 345.16-12.3 346.58-11.55 348.01-10.8 348.91-9.47 349.81-8.15 349.81-5.85L349.81-5.85Q349.81-3.05 347.76-1.38 345.71 0.3 342.01 0.3ZM363.65 0L362.4 0Q358.7 0 356.75-1.7 354.8-3.4 354.8-7.1L354.8-7.1 354.8-34Q354.8-34.5 355.2-34.77 355.6-35.05 356-35.05L356-35.05Q356.5-35.05 356.88-34.77 357.25-34.5 357.25-34L357.25-34 357.25-23.6 363.9-23.6Q364.3-23.6 364.58-23.3 364.85-23 364.85-22.5L364.85-22.5Q364.85-22.1 364.58-21.78 364.3-21.45 363.9-21.45L363.9-21.45 357.25-21.45 357.25-7.1Q357.25-4.5 358.43-3.4 359.6-2.3 362.4-2.3L362.4-2.3 363.65-2.3Q364.2-2.3 364.5-1.98 364.8-1.65 364.8-1.15L364.8-1.15Q364.8-0.7 364.5-0.35 364.2 0 363.65 0L363.65 0ZM387.3 0.3L387.3 0.3Q384.9 0.3 382.8-1 380.7-2.3 379.42-4.4 378.15-6.5 378.15-8.95L378.15-8.95 378.15-14.75Q378.15-17.2 379.4-19.3 380.65-21.4 382.75-22.65 384.85-23.9 387.3-23.9L387.3-23.9Q389.8-23.9 391.87-22.68 393.95-21.45 395.22-19.38 396.5-17.3 396.5-14.75L396.5-14.75 396.5-8.95Q396.5-6.55 395.22-4.42 393.95-2.3 391.87-1 389.8 0.3 387.3 0.3ZM387.3-2L387.3-2Q389.2-2 390.7-3 392.2-4 393.12-5.6 394.05-7.2 394.05-8.95L394.05-8.95 394.05-14.75Q394.05-16.5 393.15-18.05 392.25-19.6 390.72-20.6 389.2-21.6 387.3-21.6L387.3-21.6Q385.4-21.6 383.9-20.6 382.4-19.6 381.5-18.05 380.6-16.5 380.6-14.75L380.6-14.75 380.6-8.95Q380.6-7.2 381.5-5.6 382.4-4 383.92-3 385.45-2 387.3-2ZM403.3 0L403.3 0Q402.8 0 402.45-0.33 402.1-0.65 402.1-1.05L402.1-1.05 402.1-22.6Q402.1-23.05 402.45-23.33 402.8-23.6 403.3-23.6L403.3-23.6Q403.85-23.6 404.17-23.33 404.5-23.05 404.5-22.6L404.5-22.6 404.5-20.1Q405.35-21.55 407.02-22.73 408.7-23.9 411.2-23.9L411.2-23.9Q413.65-23.9 415.67-22.68 417.7-21.45 418.92-19.38 420.15-17.3 420.15-14.75L420.15-14.75 420.15-1.05Q420.15-0.55 419.77-0.28 419.4 0 418.9 0L418.9 0Q418.5 0 418.1-0.28 417.7-0.55 417.7-1.05L417.7-1.05 417.7-14.75Q417.7-16.5 416.77-18.05 415.85-19.6 414.35-20.6 412.85-21.6 411-21.6L411-21.6Q409.4-21.6 407.92-20.78 406.45-19.95 405.5-18.43 404.55-16.9 404.55-14.75L404.55-14.75 404.55-1.05Q404.55-0.65 404.2-0.33 403.85 0 403.3 0ZM435.99 0.3L435.99 0.3Q432.94 0.3 430.62-0.85 428.29-2 426.94-4.08 425.59-6.15 425.59-8.95L425.59-8.95 425.59-14.9Q425.59-17.35 426.87-19.4 428.14-21.45 430.22-22.68 432.29-23.9 434.79-23.9L434.79-23.9Q437.24-23.9 439.29-22.73 441.34-21.55 442.62-19.53 443.89-17.5 443.89-14.85L443.89-14.85Q443.89-13 443.27-12.18 442.64-11.35 441.69-11.18 440.74-11 439.64-11L439.64-11 428.04-11 428.04-8.9Q428.04-5.7 430.34-3.83 432.64-1.95 436.09-1.95L436.09-1.95Q438.14-1.95 439.24-2.45 440.34-2.95 440.94-3.45 441.54-3.95 442.04-3.95L442.04-3.95Q442.39-3.95 442.64-3.75 442.89-3.55 443.04-3.28 443.19-3 443.19-2.75L443.19-2.75Q443.19-2.25 442.32-1.5 441.44-0.75 439.84-0.23 438.24 0.3 435.99 0.3ZM428.04-15.1L428.04-13.05 438.69-13.05Q440.39-13.05 440.94-13.4 441.49-13.75 441.49-14.85L441.49-14.85Q441.49-16.55 440.67-18.13 439.84-19.7 438.32-20.7 436.79-21.7 434.79-21.7L434.79-21.7Q432.89-21.7 431.37-20.8 429.84-19.9 428.94-18.4 428.04-16.9 428.04-15.1L428.04-15.1ZM467.59 0.3L467.59 0.3Q464.39 0.3 462.31-0.9 460.24-2.1 459.21-4.2 458.19-6.3 458.19-8.95L458.19-8.95 458.19-14.65Q458.19-17.25 459.19-19.38 460.19-21.5 462.29-22.7 464.39-23.9 467.59-23.9L467.59-23.9Q469.64-23.9 471.16-23.38 472.69-22.85 473.54-22.15 474.39-21.45 474.39-20.85L474.39-20.85Q474.39-20.6 474.21-20.3 474.04-20 473.79-19.83 473.54-19.65 473.24-19.65L473.24-19.65Q472.79-19.65 472.21-20.15 471.64-20.65 470.61-21.13 469.59-21.6 467.69-21.6L467.69-21.6Q464.24-21.6 462.44-19.73 460.64-17.85 460.64-14.65L460.64-14.65 460.64-8.95Q460.64-5.75 462.44-3.88 464.24-2 467.74-2L467.74-2Q469.74-2 470.81-2.5 471.89-3 472.46-3.5 473.04-4 473.54-4L473.54-4Q473.89-4 474.11-3.8 474.34-3.6 474.51-3.35 474.69-3.1 474.69-2.8L474.69-2.8Q474.69-2.25 473.81-1.5 472.94-0.75 471.36-0.23 469.79 0.3 467.59 0.3ZM480.99 0L480.99 0Q480.49 0 480.14-0.33 479.79-0.65 479.79-1.05L479.79-1.05 479.79-37.25Q479.79-37.75 480.14-38.02 480.49-38.3 480.99-38.3L480.99-38.3Q481.54-38.3 481.89-38.02 482.24-37.75 482.24-37.25L482.24-37.25 482.24-1.05Q482.24-0.65 481.89-0.33 481.54 0 480.99 0ZM490.43 0L490.43 0Q489.93 0 489.58-0.33 489.23-0.65 489.23-1.05L489.23-1.05 489.23-22.6Q489.23-23.05 489.58-23.33 489.93-23.6 490.43-23.6L490.43-23.6Q490.98-23.6 491.33-23.33 491.68-23.05 491.68-22.6L491.68-22.6 491.68-1.05Q491.68-0.65 491.33-0.33 490.98 0 490.43 0ZM490.43-31.05L490.43-31.05Q489.68-31.05 489.11-31.6 488.53-32.15 488.53-32.9L488.53-32.9Q488.53-33.65 489.11-34.15 489.68-34.65 490.43-34.65L490.43-34.65Q491.23-34.65 491.76-34.15 492.28-33.65 492.28-32.9L492.28-32.9Q492.28-32.15 491.76-31.6 491.23-31.05 490.43-31.05ZM506.83 0.3L506.83 0.3Q503.63 0.3 501.56-0.9 499.48-2.1 498.46-4.2 497.43-6.3 497.43-8.95L497.43-8.95 497.43-14.65Q497.43-17.25 498.43-19.38 499.43-21.5 501.53-22.7 503.63-23.9 506.83-23.9L506.83-23.9Q508.88-23.9 510.41-23.38 511.93-22.85 512.78-22.15 513.63-21.45 513.63-20.85L513.63-20.85Q513.63-20.6 513.46-20.3 513.28-20 513.03-19.83 512.78-19.65 512.48-19.65L512.48-19.65Q512.03-19.65 511.46-20.15 510.88-20.65 509.86-21.13 508.83-21.6 506.93-21.6L506.93-21.6Q503.48-21.6 501.68-19.73 499.88-17.85 499.88-14.65L499.88-14.65 499.88-8.95Q499.88-5.75 501.68-3.88 503.48-2 506.98-2L506.98-2Q508.98-2 510.06-2.5 511.13-3 511.71-3.5 512.28-4 512.78-4L512.78-4Q513.13-4 513.36-3.8 513.58-3.6 513.76-3.35 513.93-3.1 513.93-2.8L513.93-2.8Q513.93-2.25 513.06-1.5 512.18-0.75 510.61-0.23 509.03 0.3 506.83 0.3ZM519.83 0L519.83 0Q519.33 0 518.98-0.33 518.63-0.65 518.63-1.05L518.63-1.05 518.63-37.25Q518.63-37.75 518.98-38.02 519.33-38.3 519.83-38.3L519.83-38.3Q520.38-38.3 520.73-38.02 521.08-37.75 521.08-37.25L521.08-37.25 521.08-12.1 533.98-23.4Q534.33-23.65 534.63-23.65L534.63-23.65Q534.93-23.65 535.2-23.53 535.48-23.4 535.68-23.15 535.88-22.9 535.88-22.5L535.88-22.5Q535.88-22.3 535.83-22.08 535.78-21.85 535.53-21.7L535.53-21.7 527.83-14.95 536.78-1.75Q536.98-1.5 536.98-1.2L536.98-1.2Q536.98-0.9 536.8-0.6 536.63-0.3 536.33-0.13 536.03 0.05 535.68 0.05L535.68 0.05Q535.18 0.05 534.88-0.45L534.88-0.45 526.03-13.4 521.08-9.05 521.08-1.05Q521.08-0.65 520.73-0.33 520.38 0 519.83 0Z" opacity="1" transform="matrix(1,0,0,1,0,0)" fill="#374151" class="undefined-text-1" data-fill-palette-color="secondary" id="text-1"></path></svg></g></svg></g></svg></g></svg></g><g transform="matrix(1,0,0,1,83.55579194712735,0)"><svg viewBox="0 0 228.4084161057453 228.4084161057453" height="228.4084161057453" width="228.4084161057453"><g><svg></svg></g><g id="icon-0"><svg viewBox="0 0 228.4084161057453 228.4084161057453" height="228.4084161057453" width="228.4084161057453"><g><path d="M0 114.204c0-63.073 51.131-114.204 114.204-114.204 63.073 0 114.204 51.131 114.204 114.204 0 63.073-51.131 114.204-114.204 114.204-63.073 0-114.204-51.131-114.204-114.204zM114.204 221.289c59.141 0 107.084-47.943 107.085-107.085 0-59.141-47.943-107.084-107.085-107.084-59.141 0-107.084 47.943-107.084 107.084 0 59.141 47.943 107.084 107.084 107.085z" data-fill-palette-color="accent" fill="#000000" stroke="transparent"></path><ellipse rx="113.06216597234392" ry="113.06216597234392" cx="114.20420805287264" cy="114.20420805287264" fill="#000000" stroke="transparent" stroke-width="0" fill-opacity="1" data-fill-palette-color="accent"></ellipse></g><g transform="matrix(1,0,0,1,73.96351419898417,47.126076186874045)"><svg viewBox="0 0 80.48138770777693 134.1562637319972" height="134.1562637319972" width="80.48138770777693"><g><svg xmlns="http://www.w3.org/2000/svg" xmlns:xlink="http://www.w3.org/1999/xlink" version="1.1" x="0" y="0" viewBox="24.779892714848206 11.298245158408726 40.438231388944004 67.40741169584078" enable-background="new 0 0 90 90" xml:space="preserve" height="134.1562637319972" width="80.48138770777693" class="icon-gn-0" data-fill-palette-color="quaternary" id="gn-0"><path d="M65.139 39.449c-0.062-0.105-1.645-4.723-4.146-4.654-0.267-0.652-0.901-1.842-2.208-2.586-1.197-0.684-2.658-0.824-4.34-0.424-0.311-0.598-0.983-1.574-2.195-2.029-1.332-0.496-2.912-0.221-4.669 0.814l-1.634 0.859-2.188-15.088c-0.029-0.15-0.73-3.703-3.008-4.752-1.054-0.486-2.242-0.363-3.525 0.371-0.045 0.025-0.085 0.057-0.12 0.092-0.091 0.09-0.877 0.934-0.908 2.83L36.177 35.67c-1.219 0.609-2.518 1.352-3.959 2.26-1.896 1.195-5.074 3.193-6.51 5.627-1.785 3.027-0.611 6.9 0.332 10.014 0.111 0.363 0.219 0.719 0.318 1.061 1.282 4.416 2.736 8.234 4.443 11.674 1.849 3.721 4.133 6.002 6.986 6.977 0.295 0.1 0.621-0.059 0.724-0.357 0.101-0.297-0.058-0.619-0.356-0.723-2.554-0.873-4.625-2.967-6.331-6.402-1.678-3.379-3.108-7.135-4.372-11.486-0.1-0.346-0.21-0.705-0.32-1.074-0.881-2.898-1.974-6.506-0.441-9.102 1.293-2.195 4.323-4.104 6.135-5.242 1.207-0.762 2.314-1.402 3.351-1.945l-0.009 8.537-2.289 2.059c-0.112 0.102-0.179 0.244-0.188 0.395-0.008 0.152 0.044 0.299 0.146 0.412 1.563 1.729 2.426 2.273 3.066 1.959 0.447-0.221 0.525-0.75 0.465-1.059l-0.064-1.639 0.002-1.705c0.023-0.064 0.035-0.131 0.035-0.199l0.014-9.705c0-0.072-0.014-0.143-0.037-0.207l0.02-20.904c0.02-1.217 0.414-1.824 0.537-1.988 0.923-0.506 1.707-0.598 2.4-0.281 1.743 0.803 2.359 3.902 2.361 3.908l3.285 22.66c0.043 0.307 0.313 0.521 0.633 0.48 0.307-0.037 0.529-0.311 0.498-0.621l-0.667-6.564 1.749-0.922c1.465-0.859 2.713-1.109 3.706-0.744 0.856 0.316 1.343 1.027 1.575 1.463-0.105 0.113-0.17 0.266-0.156 0.432l0.504 6.055c0.025 0.313 0.295 0.543 0.605 0.523 0.004 0 0.006-0.002 0.008-0.002 0.316-0.025 0.547-0.301 0.522-0.615l-0.474-5.701c1.51-0.412 2.783-0.346 3.784 0.219 1.413 0.799 1.835 2.336 1.841 2.352 0.031 0.115 0.098 0.205 0.182 0.279l-0.227 4.447c-0.018 0.314 0.225 0.584 0.538 0.6 0.023 0.002 0.046 0.002 0.069 0 0.283-0.02 0.515-0.25 0.529-0.541l0.225-4.379c1.357 0.135 2.416 3.533 2.699 3.941l-2.303 24.055c-0.232 6.438-3.609 8.129-3.749 8.195-0.041 0.021-0.08 0.045-0.116 0.074-2.545 2.043-3.01 5.691-3.028 5.846-0.038 0.313 0.185 0.596 0.497 0.633 0.035 0.004 0.07 0.008 0.107 0.004 0.268-0.02 0.493-0.225 0.527-0.5 0.004-0.033 0.428-3.299 2.564-5.057 0.566-0.297 4.093-2.408 4.334-9.129l2.318-24.225C65.228 39.67 65.2 39.551 65.139 39.449zM36.22 49.066c-0.23-0.166-0.595-0.477-1.148-1.061l1.093-0.984L36.22 49.066z" fill="#fce44d" data-fill-palette-color="quaternary"></path></svg></g></svg></g></svg></g></svg></g><g></g></svg></g><defs></defs></svg><rect width="253.14958265305341" height="247.2" fill="none" stroke="none" visibility="hidden"></rect></g></svg></g></svg>