<svg id="visual" viewBox="0 0 900 600" width="900" height="600" xmlns="http://www.w3.org/2000/svg" xmlns:xlink="http://www.w3.org/1999/xlink" version="1.1"><g stroke-width="1" stroke-linejoin="bevel"><path d="M473 328L474 329L501 291Z" fill="#2b49af" stroke="#2b49af"></path><path d="M501 291L463 262L473 328Z" fill="#9251ef" stroke="#9251ef"></path><path d="M501 291L496 243L463 262Z" fill="#6f51dc" stroke="#6f51dc"></path><path d="M439 219L413 270L463 262Z" fill="#6f51dc" stroke="#6f51dc"></path><path d="M463 262L413 270L473 328Z" fill="#004297" stroke="#004297"></path><path d="M473 328L437 390L474 329Z" fill="#6f51dc" stroke="#6f51dc"></path><path d="M582 325L564 264L501 291Z" fill="#4d4ec6" stroke="#4d4ec6"></path><path d="M501 291L564 264L496 243Z" fill="#9251ef" stroke="#9251ef"></path><path d="M474 329L582 325L501 291Z" fill="#00264b" stroke="#00264b"></path><path d="M380 315L437 390L473 328Z" fill="#003064" stroke="#003064"></path><path d="M474 329L541 401L582 325Z" fill="#003a7e" stroke="#003a7e"></path><path d="M503 431L541 401L474 329Z" fill="#001c33" stroke="#001c33"></path><path d="M472 160L439 219L496 243Z" fill="#2b49af" stroke="#2b49af"></path><path d="M496 243L439 219L463 262Z" fill="#2b49af" stroke="#2b49af"></path><path d="M343 255L380 315L413 270Z" fill="#00264b" stroke="#00264b"></path><path d="M413 270L380 315L473 328Z" fill="#9251ef" stroke="#9251ef"></path><path d="M437 390L503 431L474 329Z" fill="#9251ef" stroke="#9251ef"></path><path d="M533 481L579 394L541 401Z" fill="#004297" stroke="#004297"></path><path d="M541 401L579 394L582 325Z" fill="#2b49af" stroke="#2b49af"></path><path d="M623 461L601 391L579 394Z" fill="#4d4ec6" stroke="#4d4ec6"></path><path d="M579 394L601 391L582 325Z" fill="#003a7e" stroke="#003a7e"></path><path d="M603 202L584 212L621 217Z" fill="#00264b" stroke="#00264b"></path><path d="M564 264L584 212L496 243Z" fill="#004297" stroke="#004297"></path><path d="M646 332L564 264L582 325Z" fill="#001c33" stroke="#001c33"></path><path d="M383 424L442 441L437 390Z" fill="#2b49af" stroke="#2b49af"></path><path d="M437 390L442 441L503 431Z" fill="#4d4ec6" stroke="#4d4ec6"></path><path d="M386 172L379 215L439 219Z" fill="#004297" stroke="#004297"></path><path d="M439 219L379 215L413 270Z" fill="#9251ef" stroke="#9251ef"></path><path d="M584 212L508 164L496 243Z" fill="#004297" stroke="#004297"></path><path d="M508 164L472 160L496 243Z" fill="#003064" stroke="#003064"></path><path d="M331 314L339 336L380 315Z" fill="#00264b" stroke="#00264b"></path><path d="M380 315L383 424L437 390Z" fill="#9251ef" stroke="#9251ef"></path><path d="M339 336L383 424L380 315Z" fill="#4d4ec6" stroke="#4d4ec6"></path><path d="M601 391L646 332L582 325Z" fill="#003064" stroke="#003064"></path><path d="M621 217L584 212L564 264Z" fill="#004297" stroke="#004297"></path><path d="M584 212L560 145L508 164Z" fill="#b84dff" stroke="#b84dff"></path><path d="M379 215L343 255L413 270Z" fill="#00264b" stroke="#00264b"></path><path d="M343 255L331 314L380 315Z" fill="#4d4ec6" stroke="#4d4ec6"></path><path d="M646 332L621 217L564 264Z" fill="#00101c" stroke="#00101c"></path><path d="M472 160L386 172L439 219Z" fill="#003064" stroke="#003064"></path><path d="M379 215L326 233L343 255Z" fill="#00101c" stroke="#00101c"></path><path d="M442 441L533 481L503 431Z" fill="#6f51dc" stroke="#6f51dc"></path><path d="M503 431L533 481L541 401Z" fill="#001c33" stroke="#001c33"></path><path d="M601 391L663 364L646 332Z" fill="#00264b" stroke="#00264b"></path><path d="M448 538L533 481L442 441Z" fill="#004297" stroke="#004297"></path><path d="M675 430L663 364L601 391Z" fill="#00101c" stroke="#00101c"></path><path d="M646 332L650 221L621 217Z" fill="#00101c" stroke="#00101c"></path><path d="M563 143L560 145L603 202Z" fill="#2b49af" stroke="#2b49af"></path><path d="M603 202L560 145L584 212Z" fill="#001c33" stroke="#001c33"></path><path d="M508 164L493 100L472 160Z" fill="#9251ef" stroke="#9251ef"></path><path d="M472 160L403 138L386 172Z" fill="#4d4ec6" stroke="#4d4ec6"></path><path d="M386 172L326 233L379 215Z" fill="#00101c" stroke="#00101c"></path><path d="M343 255L271 277L331 314Z" fill="#003064" stroke="#003064"></path><path d="M746 281L650 221L646 332Z" fill="#004297" stroke="#004297"></path><path d="M621 217L658 139L603 202Z" fill="#003a7e" stroke="#003a7e"></path><path d="M658 139L563 143L603 202Z" fill="#004297" stroke="#004297"></path><path d="M536 100L493 100L508 164Z" fill="#003064" stroke="#003064"></path><path d="M420 109L403 138L472 160Z" fill="#00264b" stroke="#00264b"></path><path d="M386 172L275 173L326 233Z" fill="#4d4ec6" stroke="#4d4ec6"></path><path d="M353 456L418 497L383 424Z" fill="#004297" stroke="#004297"></path><path d="M383 424L418 497L442 441Z" fill="#003064" stroke="#003064"></path><path d="M341 461L353 456L297 427Z" fill="#004297" stroke="#004297"></path><path d="M297 427L353 456L383 424Z" fill="#b84dff" stroke="#b84dff"></path><path d="M578 496L623 461L579 394Z" fill="#001c33" stroke="#001c33"></path><path d="M564 536L578 496L533 481Z" fill="#001c33" stroke="#001c33"></path><path d="M533 481L578 496L579 394Z" fill="#00101c" stroke="#00101c"></path><path d="M297 427L383 424L339 336Z" fill="#00264b" stroke="#00264b"></path><path d="M353 456L383 524L418 497Z" fill="#003064" stroke="#003064"></path><path d="M536 100L508 164L560 145Z" fill="#004297" stroke="#004297"></path><path d="M427 98L420 109L472 160Z" fill="#9251ef" stroke="#9251ef"></path><path d="M275 173L271 277L326 233Z" fill="#4d4ec6" stroke="#4d4ec6"></path><path d="M630 77L536 100L563 143Z" fill="#004297" stroke="#004297"></path><path d="M563 143L536 100L560 145Z" fill="#b84dff" stroke="#b84dff"></path><path d="M686 501L675 430L623 461Z" fill="#6f51dc" stroke="#6f51dc"></path><path d="M623 461L675 430L601 391Z" fill="#00101c" stroke="#00101c"></path><path d="M663 364L746 292L646 332Z" fill="#2b49af" stroke="#2b49af"></path><path d="M377 86L386 172L403 138Z" fill="#003a7e" stroke="#003a7e"></path><path d="M326 233L271 277L343 255Z" fill="#003064" stroke="#003064"></path><path d="M331 314L256 311L339 336Z" fill="#9251ef" stroke="#9251ef"></path><path d="M493 100L427 98L472 160Z" fill="#9251ef" stroke="#9251ef"></path><path d="M420 109L377 86L403 138Z" fill="#00101c" stroke="#00101c"></path><path d="M377 86L427 98L392 0Z" fill="#003064" stroke="#003064"></path><path d="M675 430L703 379L663 364Z" fill="#2b49af" stroke="#2b49af"></path><path d="M256 311L297 427L339 336Z" fill="#001c33" stroke="#001c33"></path><path d="M383 524L448 538L418 497Z" fill="#00264b" stroke="#00264b"></path><path d="M418 497L448 538L442 441Z" fill="#00101c" stroke="#00101c"></path><path d="M271 277L256 311L331 314Z" fill="#9251ef" stroke="#9251ef"></path><path d="M448 538L564 536L533 481Z" fill="#00264b" stroke="#00264b"></path><path d="M578 496L639 503L623 461Z" fill="#003064" stroke="#003064"></path><path d="M349 516L383 524L353 456Z" fill="#004297" stroke="#004297"></path><path d="M349 516L353 456L341 461Z" fill="#003a7e" stroke="#003a7e"></path><path d="M739 207L658 139L650 221Z" fill="#001c33" stroke="#001c33"></path><path d="M650 221L658 139L621 217Z" fill="#4d4ec6" stroke="#4d4ec6"></path><path d="M628 546L639 503L578 496Z" fill="#9251ef" stroke="#9251ef"></path><path d="M675 430L759 443L703 379Z" fill="#4d4ec6" stroke="#4d4ec6"></path><path d="M273 440L307 471L297 427Z" fill="#00101c" stroke="#00101c"></path><path d="M297 427L307 471L341 461Z" fill="#b84dff" stroke="#b84dff"></path><path d="M307 471L349 516L341 461Z" fill="#4d4ec6" stroke="#4d4ec6"></path><path d="M196 361L273 440L297 427Z" fill="#4d4ec6" stroke="#4d4ec6"></path><path d="M307 471L294 522L349 516Z" fill="#00264b" stroke="#00264b"></path><path d="M457 0L427 98L493 100Z" fill="#9251ef" stroke="#9251ef"></path><path d="M427 98L377 86L420 109Z" fill="#00264b" stroke="#00264b"></path><path d="M377 86L275 173L386 172Z" fill="#004297" stroke="#004297"></path><path d="M161 307L196 361L256 311Z" fill="#003a7e" stroke="#003a7e"></path><path d="M703 379L746 292L663 364Z" fill="#4d4ec6" stroke="#4d4ec6"></path><path d="M746 292L746 281L646 332Z" fill="#9251ef" stroke="#9251ef"></path><path d="M756 254L739 207L650 221Z" fill="#b84dff" stroke="#b84dff"></path><path d="M583 600L628 546L564 536Z" fill="#001c33" stroke="#001c33"></path><path d="M564 536L628 546L578 496Z" fill="#00101c" stroke="#00101c"></path><path d="M639 503L686 501L623 461Z" fill="#4d4ec6" stroke="#4d4ec6"></path><path d="M703 379L813 364L746 292Z" fill="#9251ef" stroke="#9251ef"></path><path d="M770 260L756 254L746 281Z" fill="#00101c" stroke="#00101c"></path><path d="M746 281L756 254L650 221Z" fill="#003a7e" stroke="#003a7e"></path><path d="M628 546L686 501L639 503Z" fill="#003a7e" stroke="#003a7e"></path><path d="M658 139L630 77L563 143Z" fill="#9251ef" stroke="#9251ef"></path><path d="M536 100L556 28L493 100Z" fill="#b84dff" stroke="#b84dff"></path><path d="M689 96L630 77L658 139Z" fill="#b84dff" stroke="#b84dff"></path><path d="M377 86L265 154L275 173Z" fill="#004297" stroke="#004297"></path><path d="M275 173L201 213L271 277Z" fill="#00264b" stroke="#00264b"></path><path d="M748 573L711 482L686 501Z" fill="#00101c" stroke="#00101c"></path><path d="M686 501L711 482L675 430Z" fill="#00101c" stroke="#00101c"></path><path d="M746 292L770 260L746 281Z" fill="#6f51dc" stroke="#6f51dc"></path><path d="M824 259L770 260L845 322Z" fill="#001c33" stroke="#001c33"></path><path d="M756 254L815 208L739 207Z" fill="#2b49af" stroke="#2b49af"></path><path d="M249 522L294 522L307 471Z" fill="#001c33" stroke="#001c33"></path><path d="M349 516L346 600L383 524Z" fill="#001c33" stroke="#001c33"></path><path d="M461 600L471 600L448 538Z" fill="#b84dff" stroke="#b84dff"></path><path d="M461 600L448 538L383 524Z" fill="#001c33" stroke="#001c33"></path><path d="M448 538L519 600L564 536Z" fill="#001c33" stroke="#001c33"></path><path d="M471 600L519 600L448 538Z" fill="#004297" stroke="#004297"></path><path d="M346 600L461 600L383 524Z" fill="#003a7e" stroke="#003a7e"></path><path d="M630 77L556 28L536 100Z" fill="#9251ef" stroke="#9251ef"></path><path d="M687 75L735 40L698 47Z" fill="#003a7e" stroke="#003a7e"></path><path d="M776 141L689 96L658 139Z" fill="#6f51dc" stroke="#6f51dc"></path><path d="M630 77L629 0L556 28Z" fill="#9251ef" stroke="#9251ef"></path><path d="M186 263L256 311L271 277Z" fill="#00101c" stroke="#00101c"></path><path d="M256 311L196 361L297 427Z" fill="#6f51dc" stroke="#6f51dc"></path><path d="M273 440L249 522L307 471Z" fill="#9251ef" stroke="#9251ef"></path><path d="M711 482L759 443L675 430Z" fill="#b84dff" stroke="#b84dff"></path><path d="M519 600L583 600L564 536Z" fill="#003a7e" stroke="#003a7e"></path><path d="M628 546L654 600L686 501Z" fill="#2b49af" stroke="#2b49af"></path><path d="M711 482L796 521L759 443Z" fill="#6f51dc" stroke="#6f51dc"></path><path d="M196 361L214 441L273 440Z" fill="#003a7e" stroke="#003a7e"></path><path d="M265 154L201 213L275 173Z" fill="#00101c" stroke="#00101c"></path><path d="M776 141L658 139L739 207Z" fill="#004297" stroke="#004297"></path><path d="M689 96L687 75L630 77Z" fill="#003064" stroke="#003064"></path><path d="M201 213L186 263L271 277Z" fill="#2b49af" stroke="#2b49af"></path><path d="M270 90L263 98L265 154Z" fill="#00101c" stroke="#00101c"></path><path d="M265 154L187 126L201 213Z" fill="#004297" stroke="#004297"></path><path d="M270 90L265 154L377 86Z" fill="#003a7e" stroke="#003a7e"></path><path d="M337 36L270 90L377 86Z" fill="#00101c" stroke="#00101c"></path><path d="M629 0L511 0L556 28Z" fill="#b84dff" stroke="#b84dff"></path><path d="M556 28L511 0L493 100Z" fill="#6f51dc" stroke="#6f51dc"></path><path d="M511 0L457 0L493 100Z" fill="#004297" stroke="#004297"></path><path d="M382 0L337 36L377 86Z" fill="#001c33" stroke="#001c33"></path><path d="M214 441L249 522L273 440Z" fill="#b84dff" stroke="#b84dff"></path><path d="M294 522L346 600L349 516Z" fill="#003a7e" stroke="#003a7e"></path><path d="M269 600L346 600L294 522Z" fill="#b84dff" stroke="#b84dff"></path><path d="M157 352L172 377L196 361Z" fill="#6f51dc" stroke="#6f51dc"></path><path d="M196 361L172 377L214 441Z" fill="#9251ef" stroke="#9251ef"></path><path d="M214 441L155 474L249 522Z" fill="#004297" stroke="#004297"></path><path d="M457 0L392 0L427 98Z" fill="#2b49af" stroke="#2b49af"></path><path d="M759 443L813 364L703 379Z" fill="#00264b" stroke="#00264b"></path><path d="M144 289L161 307L186 263Z" fill="#4d4ec6" stroke="#4d4ec6"></path><path d="M186 263L161 307L256 311Z" fill="#2b49af" stroke="#2b49af"></path><path d="M392 0L382 0L377 86Z" fill="#2b49af" stroke="#2b49af"></path><path d="M337 36L276 59L270 90Z" fill="#003064" stroke="#003064"></path><path d="M270 90L276 59L263 98Z" fill="#b84dff" stroke="#b84dff"></path><path d="M263 98L187 126L265 154Z" fill="#9251ef" stroke="#9251ef"></path><path d="M273 42L276 59L337 36Z" fill="#6f51dc" stroke="#6f51dc"></path><path d="M583 600L654 600L628 546Z" fill="#00264b" stroke="#00264b"></path><path d="M759 443L820 416L813 364Z" fill="#003064" stroke="#003064"></path><path d="M810 160L776 141L739 207Z" fill="#00101c" stroke="#00101c"></path><path d="M815 208L756 254L770 260Z" fill="#6f51dc" stroke="#6f51dc"></path><path d="M161 307L157 352L196 361Z" fill="#6f51dc" stroke="#6f51dc"></path><path d="M172 377L163 395L214 441Z" fill="#4d4ec6" stroke="#4d4ec6"></path><path d="M735 40L687 75L689 96Z" fill="#b84dff" stroke="#b84dff"></path><path d="M687 75L698 47L630 77Z" fill="#2b49af" stroke="#2b49af"></path><path d="M157 352L163 395L172 377Z" fill="#003064" stroke="#003064"></path><path d="M845 322L770 260L746 292Z" fill="#b84dff" stroke="#b84dff"></path><path d="M824 259L815 208L770 260Z" fill="#9251ef" stroke="#9251ef"></path><path d="M647 0L629 0L630 77Z" fill="#4d4ec6" stroke="#4d4ec6"></path><path d="M157 352L156 400L163 395Z" fill="#00264b" stroke="#00264b"></path><path d="M163 395L156 400L214 441Z" fill="#003a7e" stroke="#003a7e"></path><path d="M813 498L820 416L759 443Z" fill="#9251ef" stroke="#9251ef"></path><path d="M813 364L845 322L746 292Z" fill="#004297" stroke="#004297"></path><path d="M285 0L273 42L337 36Z" fill="#2b49af" stroke="#2b49af"></path><path d="M276 59L165 52L263 98Z" fill="#003a7e" stroke="#003a7e"></path><path d="M77 248L144 289L186 263Z" fill="#001c33" stroke="#001c33"></path><path d="M77 248L186 263L78 193Z" fill="#001c33" stroke="#001c33"></path><path d="M161 307L98 329L157 352Z" fill="#6f51dc" stroke="#6f51dc"></path><path d="M157 352L98 329L156 400Z" fill="#003a7e" stroke="#003a7e"></path><path d="M698 47L647 0L630 77Z" fill="#4d4ec6" stroke="#4d4ec6"></path><path d="M776 141L735 40L689 96Z" fill="#b84dff" stroke="#b84dff"></path><path d="M815 208L810 160L739 207Z" fill="#9251ef" stroke="#9251ef"></path><path d="M854 121L810 160L900 191Z" fill="#6f51dc" stroke="#6f51dc"></path><path d="M883 338L845 322L813 364Z" fill="#6f51dc" stroke="#6f51dc"></path><path d="M824 259L900 191L815 208Z" fill="#00101c" stroke="#00101c"></path><path d="M165 52L187 126L263 98Z" fill="#6f51dc" stroke="#6f51dc"></path><path d="M267 600L269 600L249 522Z" fill="#004297" stroke="#004297"></path><path d="M249 522L269 600L294 522Z" fill="#6f51dc" stroke="#6f51dc"></path><path d="M181 568L267 600L249 522Z" fill="#6f51dc" stroke="#6f51dc"></path><path d="M857 54L735 40L776 141Z" fill="#6f51dc" stroke="#6f51dc"></path><path d="M698 47L760 0L647 0Z" fill="#003a7e" stroke="#003a7e"></path><path d="M723 600L748 573L686 501Z" fill="#003a7e" stroke="#003a7e"></path><path d="M654 600L723 600L686 501Z" fill="#9251ef" stroke="#9251ef"></path><path d="M748 573L796 521L711 482Z" fill="#b84dff" stroke="#b84dff"></path><path d="M900 377L883 338L813 364Z" fill="#00264b" stroke="#00264b"></path><path d="M156 400L155 474L214 441Z" fill="#9251ef" stroke="#9251ef"></path><path d="M100 441L155 474L156 400Z" fill="#003064" stroke="#003064"></path><path d="M796 521L813 498L759 443Z" fill="#2b49af" stroke="#2b49af"></path><path d="M382 0L285 0L337 36Z" fill="#6f51dc" stroke="#6f51dc"></path><path d="M165 52L153 130L187 126Z" fill="#001c33" stroke="#001c33"></path><path d="M882 533L806 515L846 600Z" fill="#00264b" stroke="#00264b"></path><path d="M796 521L806 515L813 498Z" fill="#004297" stroke="#004297"></path><path d="M770 600L796 521L748 573Z" fill="#9251ef" stroke="#9251ef"></path><path d="M165 52L276 59L273 42Z" fill="#b84dff" stroke="#b84dff"></path><path d="M187 126L153 130L201 213Z" fill="#4d4ec6" stroke="#4d4ec6"></path><path d="M77 248L98 329L144 289Z" fill="#003064" stroke="#003064"></path><path d="M144 289L98 329L161 307Z" fill="#004297" stroke="#004297"></path><path d="M900 377L820 416L900 464Z" fill="#2b49af" stroke="#2b49af"></path><path d="M900 377L813 364L820 416Z" fill="#9251ef" stroke="#9251ef"></path><path d="M845 322L900 283L824 259Z" fill="#b84dff" stroke="#b84dff"></path><path d="M159 571L181 568L155 474Z" fill="#6f51dc" stroke="#6f51dc"></path><path d="M155 474L181 568L249 522Z" fill="#004297" stroke="#004297"></path><path d="M723 600L770 600L748 573Z" fill="#004297" stroke="#004297"></path><path d="M900 464L820 416L813 498Z" fill="#001c33" stroke="#001c33"></path><path d="M883 338L900 290L845 322Z" fill="#00101c" stroke="#00101c"></path><path d="M810 160L854 121L776 141Z" fill="#9251ef" stroke="#9251ef"></path><path d="M900 290L900 283L845 322Z" fill="#4d4ec6" stroke="#4d4ec6"></path><path d="M900 191L810 160L815 208Z" fill="#6f51dc" stroke="#6f51dc"></path><path d="M71 349L100 441L156 400Z" fill="#004297" stroke="#004297"></path><path d="M779 0L760 0L735 40Z" fill="#9251ef" stroke="#9251ef"></path><path d="M735 40L760 0L698 47Z" fill="#00264b" stroke="#00264b"></path><path d="M900 464L813 498L900 471Z" fill="#001c33" stroke="#001c33"></path><path d="M883 338L900 377L900 290Z" fill="#9251ef" stroke="#9251ef"></path><path d="M214 0L165 52L273 42Z" fill="#003a7e" stroke="#003a7e"></path><path d="M78 193L186 263L201 213Z" fill="#00101c" stroke="#00101c"></path><path d="M285 0L214 0L273 42Z" fill="#003a7e" stroke="#003a7e"></path><path d="M157 600L189 600L181 568Z" fill="#6f51dc" stroke="#6f51dc"></path><path d="M181 568L189 600L267 600Z" fill="#004297" stroke="#004297"></path><path d="M78 193L201 213L153 130Z" fill="#b84dff" stroke="#b84dff"></path><path d="M98 329L71 349L156 400Z" fill="#00101c" stroke="#00101c"></path><path d="M214 0L211 0L165 52Z" fill="#004297" stroke="#004297"></path><path d="M111 514L159 571L155 474Z" fill="#00101c" stroke="#00101c"></path><path d="M77 248L71 349L98 329Z" fill="#003a7e" stroke="#003a7e"></path><path d="M857 54L779 0L735 40Z" fill="#00101c" stroke="#00101c"></path><path d="M900 283L900 191L824 259Z" fill="#4d4ec6" stroke="#4d4ec6"></path><path d="M854 121L857 54L776 141Z" fill="#4d4ec6" stroke="#4d4ec6"></path><path d="M88 102L78 193L153 130Z" fill="#4d4ec6" stroke="#4d4ec6"></path><path d="M77 248L34 245L71 349Z" fill="#4d4ec6" stroke="#4d4ec6"></path><path d="M100 441L111 514L155 474Z" fill="#6f51dc" stroke="#6f51dc"></path><path d="M23 498L111 514L100 441Z" fill="#003a7e" stroke="#003a7e"></path><path d="M900 471L813 498L882 533Z" fill="#00101c" stroke="#00101c"></path><path d="M882 533L813 498L806 515Z" fill="#2b49af" stroke="#2b49af"></path><path d="M54 600L157 600L159 571Z" fill="#003064" stroke="#003064"></path><path d="M159 571L157 600L181 568Z" fill="#9251ef" stroke="#9251ef"></path><path d="M900 90L857 54L854 121Z" fill="#001c33" stroke="#001c33"></path><path d="M846 600L806 515L796 521Z" fill="#2b49af" stroke="#2b49af"></path><path d="M900 191L900 121L854 121Z" fill="#00264b" stroke="#00264b"></path><path d="M107 0L88 102L165 52Z" fill="#003a7e" stroke="#003a7e"></path><path d="M165 52L88 102L153 130Z" fill="#2b49af" stroke="#2b49af"></path><path d="M770 600L846 600L796 521Z" fill="#00264b" stroke="#00264b"></path><path d="M47 179L34 245L78 193Z" fill="#004297" stroke="#004297"></path><path d="M78 193L34 245L77 248Z" fill="#b84dff" stroke="#b84dff"></path><path d="M71 349L0 383L100 441Z" fill="#6f51dc" stroke="#6f51dc"></path><path d="M88 102L47 179L78 193Z" fill="#9251ef" stroke="#9251ef"></path><path d="M900 121L900 90L854 121Z" fill="#b84dff" stroke="#b84dff"></path><path d="M900 600L900 542L882 533Z" fill="#2b49af" stroke="#2b49af"></path><path d="M882 533L900 542L900 471Z" fill="#2b49af" stroke="#2b49af"></path><path d="M900 0L843 0L857 54Z" fill="#00264b" stroke="#00264b"></path><path d="M857 54L843 0L779 0Z" fill="#6f51dc" stroke="#6f51dc"></path><path d="M0 234L34 245L47 179Z" fill="#00264b" stroke="#00264b"></path><path d="M0 234L0 265L34 245Z" fill="#00264b" stroke="#00264b"></path><path d="M34 245L0 265L71 349Z" fill="#2b49af" stroke="#2b49af"></path><path d="M211 0L107 0L165 52Z" fill="#2b49af" stroke="#2b49af"></path><path d="M88 102L21 154L47 179Z" fill="#6f51dc" stroke="#6f51dc"></path><path d="M0 265L0 380L71 349Z" fill="#003064" stroke="#003064"></path><path d="M111 514L54 600L159 571Z" fill="#6f51dc" stroke="#6f51dc"></path><path d="M15 103L21 154L88 102Z" fill="#9251ef" stroke="#9251ef"></path><path d="M0 380L0 383L71 349Z" fill="#9251ef" stroke="#9251ef"></path><path d="M0 181L0 234L47 179Z" fill="#003064" stroke="#003064"></path><path d="M846 600L900 600L882 533Z" fill="#00264b" stroke="#00264b"></path><path d="M0 464L23 498L100 441Z" fill="#004297" stroke="#004297"></path><path d="M107 0L94 0L88 102Z" fill="#6f51dc" stroke="#6f51dc"></path><path d="M15 103L0 181L21 154Z" fill="#4d4ec6" stroke="#4d4ec6"></path><path d="M21 154L0 181L47 179Z" fill="#003064" stroke="#003064"></path><path d="M0 383L0 464L100 441Z" fill="#4d4ec6" stroke="#4d4ec6"></path><path d="M900 90L900 0L857 54Z" fill="#2b49af" stroke="#2b49af"></path><path d="M0 517L20 530L23 498Z" fill="#003a7e" stroke="#003a7e"></path><path d="M23 498L20 530L111 514Z" fill="#4d4ec6" stroke="#4d4ec6"></path><path d="M0 83L15 103L0 69Z" fill="#b84dff" stroke="#b84dff"></path><path d="M20 530L54 600L111 514Z" fill="#004297" stroke="#004297"></path><path d="M0 464L0 517L23 498Z" fill="#4d4ec6" stroke="#4d4ec6"></path><path d="M20 530L0 600L54 600Z" fill="#b84dff" stroke="#b84dff"></path><path d="M0 69L15 103L88 102Z" fill="#9251ef" stroke="#9251ef"></path><path d="M15 103L0 83L0 181Z" fill="#9251ef" stroke="#9251ef"></path><path d="M94 0L0 69L88 102Z" fill="#001c33" stroke="#001c33"></path><path d="M0 517L0 600L20 530Z" fill="#9251ef" stroke="#9251ef"></path><path d="M94 0L0 0L0 69Z" fill="#001c33" stroke="#001c33"></path></g></svg>